<?xml version="1.0" standalone="no"?>
<!DOCTYPE svg PUBLIC "-//W3C//DTD SVG 20010904//EN"
 "http://www.w3.org/TR/2001/REC-SVG-20010904/DTD/svg10.dtd">
<svg version="1.0" xmlns="http://www.w3.org/2000/svg"
 width="2561.000000pt" height="2561.000000pt" viewBox="0 0 2561.000000 2561.000000"
 preserveAspectRatio="xMidYMid meet">
<metadata>
Created by potrace 1.11, written by Peter Selinger 2001-2013
</metadata>
<g transform="translate(0.000000,2561.000000) scale(0.100000,-0.100000)"
fill="#000000" stroke="none">
<path d="M19265 23476 c-17 -7 -45 -29 -62 -49 -51 -58 -55 -126 -13 -195 58
-95 214 -98 275 -5 91 138 -51 314 -200 249z"/>
<path d="M5920 21560 c-16 -17 -39 -57 -50 -88 -50 -130 -100 -394 -100 -523
0 -84 -14 -132 -51 -174 -35 -40 -67 -51 -169 -60 -41 -4 -99 -16 -128 -27
-70 -26 -138 -91 -147 -140 -20 -106 123 -213 314 -234 31 -4 72 -16 92 -26
60 -33 75 -73 88 -237 38 -480 125 -861 196 -861 41 0 90 130 129 343 27 143
61 416 71 567 4 52 14 110 22 128 20 43 84 78 154 86 190 20 334 128 314 234
-9 49 -77 114 -147 140 -29 11 -87 23 -128 27 -102 9 -134 20 -168 60 -40 45
-49 80 -56 210 -10 228 -85 515 -150 580 -33 33 -52 31 -86 -5z"/>
<path d="M2175 21419 c-119 -28 -192 -150 -161 -270 45 -171 255 -224 374 -94
149 161 1 413 -213 364z"/>
<path d="M19886 20628 c-41 -62 -79 -222 -92 -380 -8 -106 -27 -142 -81 -157
-21 -6 -54 -11 -73 -11 -45 0 -132 -41 -154 -71 -56 -81 30 -170 189 -194 84
-13 115 -48 115 -129 0 -78 41 -366 66 -464 47 -187 89 -190 135 -7 22 85 55
315 65 445 8 115 28 142 109 153 87 12 141 36 179 78 39 43 44 65 21 108 -19
38 -105 81 -162 81 -56 0 -107 22 -128 54 -12 18 -20 60 -25 133 -10 126 -41
269 -74 333 -27 54 -65 66 -90 28z"/>
<path d="M21874 20599 c-52 -12 -121 -71 -145 -123 -45 -99 -6 -224 86 -281
41 -25 58 -30 115 -30 90 0 152 37 192 114 90 172 -58 364 -248 320z"/>
<path d="M16500 20554 c-42 -26 -63 -64 -68 -118 -3 -41 1 -58 20 -86 80 -119
254 -77 266 63 5 65 -14 109 -61 137 -39 24 -121 26 -157 4z"/>
<path d="M2924 19746 c-142 -62 -306 -653 -329 -1181 -7 -160 -22 -235 -59
-294 -66 -103 -144 -138 -346 -156 -225 -21 -347 -71 -454 -186 -79 -85 -95
-169 -50 -265 23 -50 115 -140 186 -182 70 -42 210 -89 301 -102 40 -6 101
-15 135 -20 110 -16 192 -72 239 -165 23 -45 27 -71 39 -245 45 -652 176
-1402 280 -1600 30 -57 43 -74 72 -89 113 -60 241 386 341 1194 26 207 39 344
51 534 8 134 13 161 35 207 51 104 142 157 300 173 255 27 471 137 555 285 36
62 40 138 10 204 -40 88 -174 186 -310 227 -30 9 -122 22 -204 30 -131 12
-157 17 -212 45 -74 36 -126 93 -156 172 -16 42 -22 91 -29 228 -9 196 -26
326 -70 545 -70 350 -156 571 -248 632 -39 27 -37 26 -77 9z"/>
<path d="M10130 19059 c-469 -54 -952 -245 -1223 -486 -67 -59 -1924 -1988
-2189 -2274 -231 -249 -530 -670 -672 -949 -224 -436 -364 -1025 -437 -1835
-6 -66 -13 -368 -16 -671 -4 -444 -2 -604 11 -820 16 -249 101 -1505 127
-1865 l12 -157 -185 -223 c-603 -731 -1013 -1292 -1158 -1582 -52 -104 -63
-136 -67 -189 -5 -83 2 -93 74 -92 149 1 447 157 958 499 132 89 292 198 355
243 63 45 116 80 118 78 2 -3 14 -154 27 -338 40 -551 54 -679 126 -1183 49
-341 74 -461 145 -675 95 -288 254 -579 452 -827 99 -124 270 -311 353 -387
271 -246 1021 -596 1579 -736 464 -117 2442 -466 4360 -770 588 -93 749 -119
1160 -189 129 -21 341 -52 470 -66 218 -25 255 -27 505 -22 477 11 788 59
1239 194 443 131 758 289 1000 499 43 38 93 77 110 87 121 72 249 263 451 672
279 565 609 1394 1083 2719 l187 523 160 -281 c333 -585 712 -1207 1018 -1669
l190 -288 -113 -347 c-62 -191 -285 -874 -496 -1517 -408 -1243 -401 -1220
-372 -1319 17 -56 100 -141 153 -155 65 -18 135 -13 190 13 53 24 109 80 126
125 11 26 533 1617 852 2591 618 1891 1891 5766 1896 5772 3 4 42 14 86 23
308 64 533 324 552 640 11 175 -49 356 -160 488 -32 36 -57 71 -57 76 0 27 76
27 182 0 138 -36 263 -10 308 64 26 42 25 71 -6 137 -32 69 -102 136 -193 184
-132 69 -149 114 -103 275 90 310 152 630 152 788 0 141 -19 161 -91 96 -85
-77 -289 -423 -415 -703 -58 -129 -80 -162 -126 -186 -32 -17 -96 -18 -134 -4
-15 6 -62 14 -104 17 -88 7 -175 -14 -227 -53 -103 -78 -28 -238 152 -325 79
-39 125 -77 125 -105 0 -11 -15 -14 -63 -14 -80 0 -182 -27 -272 -71 -104 -50
-227 -176 -283 -289 -55 -112 -75 -200 -75 -330 0 -190 59 -341 187 -477 l74
-79 -713 -2173 c-392 -1195 -715 -2174 -717 -2177 -2 -2 -46 103 -98 234 -138
352 -292 726 -582 1416 -143 340 -284 682 -314 760 -31 77 -113 272 -184 431
-97 219 -128 297 -124 320 7 50 42 718 94 1815 28 575 61 1243 75 1485 88
1572 124 2635 105 3137 -20 531 -83 755 -274 983 -222 266 -413 396 -846 580
-170 72 -254 101 -511 175 -1016 293 -2419 508 -4099 630 -157 11 -467 34
-690 50 -748 55 -814 58 -1750 75 -863 16 -1322 17 -1440 4z m-1780 -6354
c230 -57 430 -168 604 -335 212 -203 338 -450 365 -715 18 -179 -11 -332 -97
-500 -38 -74 -63 -107 -142 -185 -65 -65 -120 -109 -173 -139 -433 -244 -1022
-135 -1422 264 -150 149 -257 332 -312 531 -24 87 -27 117 -28 249 0 127 3
162 23 230 94 330 348 552 707 619 122 24 340 15 475 -19z m5720 -844 c252
-58 463 -175 651 -361 230 -228 349 -497 349 -785 0 -416 -256 -732 -678 -837
-118 -30 -356 -31 -482 -4 -510 111 -916 504 -1006 974 -19 98 -18 265 2 360
73 355 358 610 750 672 90 14 315 4 414 -19z m-3350 -4515 c1043 -96 1997
-325 2615 -626 463 -226 628 -442 470 -618 -233 -259 -1186 -341 -2325 -201
-953 117 -1905 382 -2388 666 -297 174 -418 334 -358 477 66 158 395 271 921
316 160 14 864 4 1065 -14z"/>
<path d="M8075 12555 c-290 -53 -511 -255 -570 -520 -21 -92 -16 -276 9 -370
46 -170 183 -374 335 -497 304 -245 704 -305 1019 -153 175 86 304 244 352
431 85 332 -85 718 -415 941 -222 150 -492 212 -730 168z"/>
<path d="M13818 11720 c-233 -40 -432 -180 -526 -370 -53 -109 -72 -190 -72
-315 0 -452 396 -870 886 -936 176 -23 337 2 494 79 180 87 313 255 356 448
23 105 15 290 -16 389 -97 304 -352 559 -667 664 -133 45 -328 62 -455 41z"/>
<path d="M21917 18432 c-41 -45 -83 -209 -96 -379 -7 -98 -10 -106 -38 -135
-26 -25 -41 -31 -100 -38 -117 -12 -187 -60 -187 -125 0 -66 70 -116 197 -140
89 -17 113 -40 121 -117 40 -413 85 -618 135 -618 11 0 25 9 31 21 37 68 81
309 99 538 11 142 22 156 130 177 251 47 260 237 13 264 -37 4 -78 13 -90 21
-31 20 -52 69 -52 126 0 118 -58 362 -96 404 -21 24 -46 24 -67 1z"/>
<path d="M5677 18086 c-57 -21 -103 -61 -127 -111 -18 -37 -21 -59 -18 -115 3
-58 9 -76 35 -112 63 -87 187 -118 279 -71 140 73 166 245 55 354 -66 64 -144
83 -224 55z"/>
<path d="M4306 15205 c-43 -46 -96 -261 -96 -388 0 -68 -19 -119 -52 -141 -12
-8 -52 -18 -88 -22 -82 -9 -147 -38 -171 -78 -28 -46 -24 -74 19 -116 37 -37
97 -62 186 -75 23 -4 50 -18 66 -34 25 -24 29 -37 35 -117 3 -49 15 -152 26
-229 65 -462 141 -474 208 -32 11 72 23 177 27 232 4 55 13 113 21 128 16 32
66 57 115 57 42 0 131 42 163 76 33 36 33 83 0 122 -31 37 -81 57 -165 67 -54
6 -70 13 -97 40 -28 28 -33 40 -33 80 0 138 -59 386 -102 433 -27 28 -34 28
-62 -3z"/>
<path d="M2029 12282 c-125 -65 -158 -234 -66 -338 45 -52 95 -74 167 -74 72
0 122 22 167 74 41 46 56 96 51 167 -6 78 -43 133 -117 171 -71 37 -131 37
-202 0z"/>
</g>
</svg>
